<?xml version="1.0" encoding="utf-8"?>
<!-- Generator: Adobe Illustrator 23.0.2, SVG Export Plug-In . SVG Version: 6.00 Build 0)  -->
<svg version="1.1" id="Layer_1" xmlns="http://www.w3.org/2000/svg" xmlns:xlink="http://www.w3.org/1999/xlink" x="0px" y="0px"
	 viewBox="0 0 782.5 421.1" style="enable-background:new 0 0 782.5 421.1;" xml:space="preserve">
<style type="text/css">
	.st0{fill:#FFFFFF;}
</style>
<g>
	<path d="M391.9,314.1c-98.5,0-197.1,0-295.6-0.1c-2.3,0-4.8-0.4-6.9-1.3c-4-1.8-6-5.3-6.3-9.6c0-0.5,0-1.1,0-1.6
		c0-60.3,0-120.7,0-181c0-6,3-10.5,8.1-12c1.7-0.5,3.5-0.6,5.3-0.6c84.1,0,168.1,0,252.2,0c112.9,0,225.9,0,338.8,0.1
		c2.3,0,4.8,0.4,6.9,1.3c4,1.8,6,5.3,6.3,9.6c0,0.5,0,1.1,0,1.6c0,60.3,0,120.7,0,181c0,6-2.8,10.4-8,11.9c-1.7,0.5-3.5,0.6-5.3,0.6
		c-89.1,0-178.2,0-267.3,0C410.8,314.1,401.4,314.1,391.9,314.1z M392.5,305.5c96.4,0,192.8,0,289.3,0c6.6,0,9.5-2.9,9.5-9.5
		c0-56.7,0-113.4,0-170.1c0-6.6-2.9-9.5-9.5-9.5c-192.8,0-385.7,0-578.5,0c-6.6,0-9.5,2.9-9.5,9.5c0,56.7,0,113.4,0,170.1
		c0,6.6,2.9,9.5,9.5,9.5C199.7,305.5,296.1,305.5,392.5,305.5z"/>
	<path class="st0" d="M392.5,305.5c-96.4,0-192.8,0-289.3,0c-6.6,0-9.5-2.9-9.5-9.5c0-56.7,0-113.4,0-170.1c0-6.6,2.9-9.5,9.5-9.5
		c192.8,0,385.7,0,578.5,0c6.6,0,9.5,2.9,9.5,9.5c0,56.7,0,113.4,0,170.1c0,6.6-2.9,9.5-9.5,9.5
		C585.3,305.5,488.9,305.5,392.5,305.5z M392.3,299.3c96.4,0,192.7,0,289.1,0c3.6,0,3.7-0.1,3.7-3.6c0-56.4,0-112.9,0-169.3
		c0-3.7,0-3.8-3.8-3.8c-192.6,0-385.2,0-577.7,0c-3.6,0-3.7,0.1-3.7,3.6c0,56.5,0,113,0,169.5c0,0.5,0,1.1,0,1.6c0,1.3,0.7,2,2,2
		c0.7,0,1.5,0,2.2,0C200.1,299.3,296.2,299.3,392.3,299.3z"/>
	<path d="M392.3,299.3c-96.1,0-192.2,0-288.3,0c-0.7,0-1.5,0-2.2,0c-1.3,0-1.9-0.7-2-2c0-0.5,0-1.1,0-1.6c0-56.5,0-113,0-169.5
		c0-3.6,0.1-3.6,3.7-3.6c192.6,0,385.2,0,577.7,0c3.7,0,3.8,0,3.8,3.8c0,56.4,0,112.9,0,169.3c0,3.6-0.1,3.6-3.7,3.6
		C585,299.3,488.7,299.3,392.3,299.3z M119.5,142.7c0,36.2,0,72.3,0,108.4c0,3.6,2.1,5.8,5.8,5.8c8.7,0,17.3,0,26,0
		c0.8,0,1.6-0.2,2.2-0.6c5.4-3.4,10.3-7.5,13.5-13.2c1.8-3.2,3.5-6.7,4.3-10.3c0.8-3.1,0.3-6.5,0.4-9.7c0.2-6.2-1.3-11.7-6.3-15.9
		c-1-0.9-1.9-2.5-2-3.8c-0.3-3-0.2-6.2,0-9.2c0.2-2.5,1.6-4.5,3.7-6.1c1.3-0.9,2.6-2.3,3.1-3.7c0.8-2.4,0.9-5,1.5-7.4
		c0.9-3.8,0.5-7.6-0.6-11.3c-1.9-6.8-4.8-13.1-9.5-18.5c-2.4-2.8-5.5-4.4-9.4-4.3c-4.9,0.1-9.9-0.2-14.9-0.2
		C131.5,142.6,125.5,142.7,119.5,142.7z M577.7,190c-1.4-2.7-3-4.8-3.7-7.2c-1.4-4.7-2.4-9.5-3.4-14.2c-1.3-5.9-2.3-11.8-3.7-17.7
		c-0.7-2.9-1.8-5.8-4.3-7.9c-1.9-1.7-4.5-2.3-6-1.1c-3,2.3-5.3,5.4-5.4,9.3c-0.2,7.9,0.1,15.9,0.1,23.8c0.1,22.6,0.3,45.2,0.4,67.8
		c0,2.9,0.2,5.9,0.5,8.8c0.3,2.4,3.4,5.1,5.3,4.8c2.3-0.3,5.9-3.9,5.9-6c0.1-7.5,0.2-15,0.3-22.6c0-4.6-0.1-9.2,0.1-13.8
		c0-1,1-2,1.5-3c0.7,0.5,1.4,1,1.9,1.6c3.7,5,4.8,10.8,5.6,16.8c0.3,2.8,0.7,5.7,2.5,8.1c0.9,1.2,2.3,2.2,3.5,1.3
		c1.5-1.1,2.8-2.7,3.5-4.4c0.8-2.2,0.8-4.7,1.2-7c0.6-3.3,1.2-6.6,2.1-9.8c0.6-2,1.5-4,2.5-5.9c0.5-1.1,1.5-1,1.9,0.1
		c0.5,1.5,1.1,3,1.1,4.5c0.2,11.1,0.4,22.2,0.4,33.3c0,2.3,0.9,3.9,2.7,5.1c1.4,0.9,2.7,2.3,4.6,1.2c2.2-1.2,4-2.9,4.2-5.5
		c0.2-3,0.1-6,0.1-9c0.1-12,0.2-24,0.3-36.1c0-9.2,0-18.5,0-27.7c0.1-8.1,0.1-16.1,0.5-24.2c0.2-4.1-1.7-7.2-4-10.2
		c-1.7-2.2-3.6-2.6-6-1.3c-1.3,0.7-2.7,1.8-3.4,3.1c-1.3,2.3-2.4,4.8-2.9,7.3c-1.4,7-2.6,14.1-3.7,21.2
		C583.1,179.2,581.3,184.6,577.7,190z M291.3,171.7C291.3,171.7,291.3,171.7,291.3,171.7c0,7,0,14,0,21c0,3.1,1.9,5,5,5
		c2,0,4-0.1,5.9,0c2.8,0.2,5-0.9,7-2.6c1.6-1.3,3.3-2.4,5-3.5c2.3-1.4,4.5-1,6.6,0.8c2.5,2.1,3.1,5.1,3.7,8.1
		c1.6,8.6,1.6,17.4,1.9,26.2c0.2,4.5-1.5,8.2-3.8,11.8c-3.1,4.8-6.8,3.4-9.8,0.7c-0.7-0.6-1.2-1.4-1.7-2.2c-2.1-3.1-4.1-6.3-6.5-9.3
		c-0.7-1-2.2-1.8-3.4-1.9c-3.2-0.1-6.4,0.6-8.7,3c-0.9,1-1.6,2.6-1.7,4c-0.1,1.7,0.5,3.5,1,5.1c3.7,11.1,12.1,17,22.7,20.3
		c2.6,0.8,5.2,0.4,7.7-0.6c5.3-2.1,9.9-5.3,13.7-9.5c3.1-3.4,5.4-7.3,6.3-11.8c0.9-4,1.1-8.2,1.1-12.3c0.1-7.1-0.1-14.1-0.3-21.2
		c-0.1-2.4-0.1-5.1-1.3-7.1c-3.7-6.4-8.2-12.3-14.5-16.5c-3-2-6.3-3.2-10.1-3c-2.6,0.1-5.3,0.1-7.9-0.1c-0.7,0-1.7-0.7-2-1.4
		c-1.7-3.5-2.1-7.3-2-11.1c0.1-3.1,1.8-4.7,4.9-4.9c0.5,0,1.1,0,1.6,0c8.3,0,16.5-0.2,24.8,0.1c3.3,0.1,4.9-1.4,6.1-3.9
		c0.4-0.8,0.8-1.7,1-2.5c0.9-3.1-1.8-8.3-4.9-9.1c-2.5-0.6-5.2-0.9-7.8-0.9c-10.6-0.1-21.1-0.1-31.7-0.1c-5.2,0-8.5,3.3-8.4,8.4
		C291.3,157.9,291.3,164.8,291.3,171.7z M369,160.5c0.8,0,1.5,0,2.2,0c7.5,0,14.9,0.1,22.4-0.1c2.1,0,4.3-0.5,6.4-1.2
		c3.9-1.3,5.3-4.4,4.9-9.9c-0.3-3.4-2.1-5.3-5.9-6.2c-1.3-0.3-2.6-0.6-3.9-0.6c-11.6,0-23.1,0-34.7,0c-3,0-6.1,3.2-6.1,6.2
		c0,33.4,0,66.7,0,100.1c0,0.3,0,0.7,0,1c0.2,3.2,2.2,5.9,5.4,6.6c2.3,0.5,4.7,0.7,7.1,0.7c9.1,0,18.2-0.1,27.3-0.3
		c6-0.1,8.9-3.2,9.2-9.1c0.2-4.4-1.5-6.8-5.8-7.8c-1.5-0.4-3.1-0.6-4.7-0.6c-7.2-0.1-14.4,0-21.6,0c-0.7,0-1.4,0-2.1,0
		c0-10.1,0-20,0-30c7.5,0,14.8,0.1,22.1,0c2.5,0,5-0.1,7.3-0.7c5.7-1.4,7.6-5.7,6-11.2c-1.5-5.1-5.9-8.2-11.3-8
		c-7.5,0.2-14.9,0.4-22.4,0.8c-2.2,0.1-2.5-0.7-2.5-2.6c0.2-8.6,0.4-17.2,0.5-25.8C368.9,161.5,368.9,161.1,369,160.5z M617.6,198.9
		c0,16.7,0,33.4,0,50.2c0,2.9,1.3,4.8,4.2,5.4c1.7,0.4,3.5,0.4,5.3,0.4c4.3,0,5.9-1.7,5.8-6c-0.1-11.6-0.1-23.3-0.1-34.9
		c0-2.8,1.4-4.2,4.1-4.3c4.6-0.1,9.1-0.4,13.7-0.3c3.3,0.1,6-1,8.1-3.4c6.7-7.7,10.9-16.6,11.5-26.9c0.2-2.6-0.1-5.2,0-7.8
		c0.2-3.9-0.8-7.7-2.2-11.3c-2.2-5.8-4.8-11.5-9.3-16c-2-2.1-4.5-3.3-7.4-3.3c-8.5-0.1-17-0.2-25.6-0.4c-4.6-0.1-8.3,3.5-8.3,8.1
		C617.6,165.2,617.6,182.1,617.6,198.9z M491.9,198.4C491.9,198.4,491.9,198.4,491.9,198.4c0,11.9-0.1,23.8,0,35.7
		c0,4,0.9,7.9,3.6,11.2c3.8,4.8,8,9.3,14.5,10.2c2,0.3,3.9,0.2,5.9,0.5c7.4,1,13.8-0.6,18.1-7.4c2.4-3.7,4.9-7.4,7.3-11.1
		c0.6-0.9,1.5-1.9,1.5-2.9c0.1-2.5-0.1-5-0.5-7.5c-0.7-3.7-2.8-5.6-6.1-6.1c-3.2-0.4-5.7,1.1-7.3,4.6c-0.7,1.5-1.1,3.1-1.7,4.6
		c-0.3,0.8-0.6,1.6-1.2,2.2c-2.2,2.3-5,3.7-8.1,4.2c-6,1-11.5-3.7-11.6-9.9c-0.1-5.8-0.1-11.6-0.3-17.4c-0.2-6.8-0.6-13.6-0.8-20.4
		c-0.1-5.7,0.1-11.5-0.2-17.2c-0.2-3.5,1-6.3,3.2-8.8c2.8-3.2,6.1-4.6,10.3-3.3c4.2,1.3,7.3,3.8,8.8,8.1c0.8,2.3,1.6,4.6,3,6.6
		c2.6,3.8,7.7,3.6,10.3-0.1c1-1.5,1.7-3,1.9-4.9c0.4-2.9,0.9-5.7-0.7-8.2c-3-4.8-6.1-9.6-9.6-14.1c-2.7-3.6-6.5-5.2-11.1-4.9
		c-3,0.2-6.1,0.5-9.1,0.3c-9.1-0.5-20.4,11.3-20.2,20.9C492.1,175,491.9,186.7,491.9,198.4z M278.8,239.1c2.7-2,4.7-5,4.8-9.1
		c0.1-5.5,0-8.1-5.8-9.9c-0.8-0.3-1.5-1.6-1.8-2.6c-0.4-1.6-0.8-3-2.5-3.4c-5.4-1.4-11.1-0.8-14.8,4.3c-1.6,2.2-3.4,2.6-5.8,2.5
		c-1.2-0.1-1.6-0.6-1.6-1.7c0.1-2.6,0.2-5.3,0.1-7.9c-0.2-2.3,0.5-4.1,1.8-5.9c0.2-0.3,0.2-0.6,0.4-0.9c1.3-3,2.4-6,3.8-9
		c1.8-4.1,3.8-8.1,5.7-12.2c1.8-4.1,3.5-8.3,5.3-12.5c1.8-4.3,3.7-8.6,5.6-12.9c0.9-2,1.7-4,2.5-6.1c1.1-2.6,0.5-4.5-2-6.1
		c-1.2-0.8-2.5-1.4-3.8-2.1c-2.7-1.3-5.5-1.1-7.6,0.9c-2.2,2.1-4.5,4.5-5.6,7.2c-7.4,18.5-14.6,37.1-21.6,55.8
		c-2.1,5.7-4,11.5-5.2,17.4c-1,5.2,0.5,10.1,4.7,13.7c1,0.8,2.4,1.4,3.7,1.4c6.5,0.1,13.1,0.1,19.6,0.1c0.8,0,1.5,0.1,2.4,0.1
		c0,1.7,0,3.2,0,4.7c0,1.5,0,3,0.1,4.6c0.3,4.6,2.5,6.7,7.8,7.6c3.9,0.6,7.4-1.3,8.4-5.3C278.3,248,278.3,243.8,278.8,239.1z
		 M418.9,280.9C418.9,280.9,418.9,280.9,418.9,280.9c0-2.1,0.1-4.2-0.1-6.3c-0.1-2-2-3.3-4.5-3.2c-2.2,0.1-3.8,1.4-3.8,3.4
		c-0.1,3.6-0.1,7.2-0.1,10.9c0,2.8,1.5,4.2,4.3,4.2c2.5,0,4.1-1.7,4.1-4.4C418.9,283.9,418.9,282.4,418.9,280.9z M429.4,276.7
		c-0.4-1.1-0.8-2.5-1.4-3.7c-1-1.8-2.8-2-4.5-1.4c-1.7,0.6-3,1.8-3,3.8c0,1.9,0.4,3.9,0.4,5.8c0,1.7-0.5,3.4-0.4,5
		c0.1,1.9,1.5,3.2,3.2,3.9c1.6,0.6,2.7-0.4,3.8-1.4c2.1-2.1,1.7-4.5,1.2-6.9c-0.1-0.5-0.3-1-0.2-1.5
		C428.8,279.2,429.1,278.2,429.4,276.7z M381,274.4c-0.2,0.6-0.2,0.8-0.3,1.1c-1.4,4.3-2.8,8.6-4.2,13c-0.1,0.5,0.1,1.1,0.2,1.6
		c0.5-0.1,1.1-0.2,1.6-0.4c0.4-0.3,0.8-0.8,1-1.3c1.6-4.5,3.1-9,4.6-13.6c0.8-2.3,0.2-3.2-2.2-3.2c-1.2,0-2.4,0-3.6,0
		c-0.9,0-2.1,0-1.9,1.3c0.1,0.6,1.1,1.3,1.8,1.6C378.8,274.6,379.8,274.4,381,274.4z M374.7,290.2c0-5.7,0-11.4-0.1-17
		c0-0.6-0.9-1.5-1.6-1.6c-1.3-0.3-2.7,0.2-2.8,1.7c0,0.8,1,1.6,1.6,2.5c0.2-0.1,0.4-0.2,0.6-0.3c0,4.1,0,8.3,0,12.4
		C372.4,289.1,372.5,290.2,374.7,290.2z M339.9,159.3c0-0.1,0-0.1,0-0.2c-9.5,0-18.9,0-28.4,0c0,0.1,0,0.1,0,0.2
		C320.9,159.3,330.4,159.3,339.9,159.3z M399.7,281c-1.1-0.8-1.8-1.8-2.3-1.7c-0.6,0.1-1.5,1.1-1.5,1.7c0,0.6,0.9,1.6,1.5,1.7
		C398,282.8,398.7,281.9,399.7,281z"/>
	<path class="st0" d="M119.5,142.7c6.1,0,12,0,18,0c5,0,9.9,0.3,14.9,0.2c3.9-0.1,6.9,1.4,9.4,4.3c4.6,5.4,7.5,11.8,9.5,18.5
		c1.1,3.7,1.5,7.4,0.6,11.3c-0.6,2.5-0.7,5.1-1.5,7.4c-0.5,1.4-1.8,2.8-3.1,3.7c-2.2,1.6-3.5,3.5-3.7,6.1c-0.2,3.1-0.3,6.2,0,9.2
		c0.1,1.3,0.9,3,2,3.8c4.9,4.2,6.5,9.7,6.3,15.9c-0.1,3.3,0.3,6.6-0.4,9.7c-0.9,3.6-2.5,7-4.3,10.3c-3.2,5.6-8.1,9.7-13.5,13.2
		c-0.6,0.4-1.5,0.6-2.2,0.6c-8.7,0-17.3,0-26,0c-3.6,0-5.8-2.2-5.8-5.8C119.5,215,119.5,178.8,119.5,142.7z M134.7,175.6
		C134.8,175.6,134.8,175.6,134.7,175.6c0.1,2.5,0.1,5,0.1,7.5c-0.1,4.3,2.4,7.2,6.6,7.6c1.6,0.2,3.3,0.2,4.9,0
		c4-0.3,6.3-2.3,6.5-6.3c0.3-5.8,0.5-11.6,0.3-17.4c-0.1-4.2-1.9-5.9-6.1-6.6c-1.9-0.3-3.8-0.4-5.7-0.1c-4.3,0.6-6.6,3-6.6,6.3
		C134.7,169.5,134.7,172.6,134.7,175.6z M134.7,225.2C134.7,225.2,134.8,225.2,134.7,225.2c0.1,2.4,0.1,4.9,0,7.3
		c-0.1,4.4,2.4,7.4,6.7,7.7c1.7,0.1,3.4,0.1,5.1,0c3.8-0.3,6-2.2,6.2-6.1c0.3-5.8,0.5-11.6,0.3-17.4c-0.2-6.2-4.8-7.4-9.4-6.8
		c-0.6,0.1-1.2,0.3-1.7,0.2c-3.8-0.8-7.4,2.1-7.3,6C134.7,219.1,134.7,222.1,134.7,225.2z"/>
	<path class="st0" d="M577.7,190c3.7-5.4,5.4-10.7,6.3-16.4c1.1-7.1,2.3-14.2,3.7-21.2c0.5-2.5,1.7-5,2.9-7.3
		c0.7-1.3,2.1-2.4,3.4-3.1c2.4-1.3,4.3-0.9,6,1.3c2.3,3,4.2,6,4,10.2c-0.4,8-0.4,16.1-0.5,24.2c-0.1,9.2,0,18.5,0,27.7
		c-0.1,12-0.2,24-0.3,36.1c0,3,0.1,6-0.1,9c-0.2,2.6-2,4.3-4.2,5.5c-1.9,1.1-3.2-0.3-4.6-1.2c-1.8-1.2-2.7-2.8-2.7-5.1
		c0-11.1-0.2-22.2-0.4-33.3c0-1.5-0.6-3.1-1.1-4.5c-0.4-1.1-1.3-1.2-1.9-0.1c-0.9,1.9-1.9,3.9-2.5,5.9c-0.9,3.2-1.5,6.5-2.1,9.8
		c-0.5,2.3-0.4,4.8-1.2,7c-0.6,1.7-2,3.3-3.5,4.4c-1.2,0.9-2.6-0.1-3.5-1.3c-1.8-2.4-2.2-5.3-2.5-8.1c-0.7-6-1.8-11.8-5.6-16.8
		c-0.5-0.7-1.3-1.1-1.9-1.6c-0.5,1-1.5,2-1.5,3c-0.2,4.6,0,9.2-0.1,13.8c-0.1,7.5-0.2,15-0.3,22.6c0,2.1-3.6,5.6-5.9,6
		c-1.9,0.3-5-2.4-5.3-4.8c-0.3-2.9-0.5-5.9-0.5-8.8c-0.2-22.6-0.3-45.2-0.4-67.8c0-7.9-0.3-15.9-0.1-23.8c0.1-3.9,2.4-6.9,5.4-9.3
		c1.5-1.2,4.1-0.5,6,1.1c2.4,2.1,3.6,4.9,4.3,7.9c1.4,5.9,2.4,11.8,3.7,17.7c1,4.8,2,9.6,3.4,14.2
		C574.7,185.1,576.2,187.3,577.7,190z"/>
	<path class="st0" d="M291.3,171.7c0-6.9,0-13.9,0-20.8c0-5.1,3.3-8.4,8.4-8.4c10.6,0,21.1,0,31.7,0.1c2.6,0,5.3,0.3,7.8,0.9
		c3.1,0.7,5.8,6,4.9,9.1c-0.3,0.9-0.6,1.7-1,2.5c-1.3,2.5-2.9,4-6.1,3.9c-8.3-0.3-16.5-0.1-24.8-0.1c-0.5,0-1.1,0-1.6,0
		c-3.1,0.2-4.8,1.9-4.9,4.9c-0.1,3.8,0.3,7.6,2,11.1c0.3,0.7,1.3,1.3,2,1.4c2.6,0.2,5.3,0.2,7.9,0.1c3.7-0.2,7,1,10.1,3
		c6.3,4.2,10.8,10.1,14.5,16.5c1.1,2,1.2,4.7,1.3,7.1c0.3,7.1,0.4,14.1,0.3,21.2c-0.1,4.1-0.3,8.3-1.1,12.3c-1,4.4-3.2,8.4-6.3,11.8
		c-3.8,4.2-8.4,7.5-13.7,9.5c-2.5,1-5.1,1.4-7.7,0.6c-10.7-3.3-19.1-9.2-22.7-20.3c-0.6-1.7-1.1-3.4-1-5.1c0.1-1.4,0.7-3,1.7-4
		c2.3-2.4,5.5-3.2,8.7-3c1.2,0.1,2.7,0.9,3.4,1.9c2.3,3,4.3,6.2,6.5,9.3c0.5,0.8,1,1.6,1.7,2.2c3,2.7,6.7,4.1,9.8-0.7
		c2.3-3.6,4-7.3,3.8-11.8c-0.3-8.8-0.3-17.5-1.9-26.2c-0.6-3-1.2-5.9-3.7-8.1c-2-1.8-4.2-2.1-6.6-0.8c-1.8,1-3.4,2.2-5,3.5
		c-2.1,1.6-4.2,2.8-7,2.6c-2-0.2-4,0-5.9,0c-3.2,0-5-1.9-5-5C291.3,185.8,291.3,178.8,291.3,171.7
		C291.3,171.7,291.3,171.7,291.3,171.7z"/>
	<path class="st0" d="M369,160.5c-0.1,0.6-0.1,1-0.1,1.3c-0.2,8.6-0.3,17.2-0.5,25.8c-0.1,1.9,0.3,2.7,2.5,2.6
		c7.5-0.4,14.9-0.6,22.4-0.8c5.4-0.1,9.8,2.9,11.3,8c1.6,5.5-0.3,9.8-6,11.2c-2.4,0.6-4.9,0.7-7.3,0.7c-7.3,0.1-14.6,0-22.1,0
		c0,10,0,19.9,0,30c0.7,0,1.4,0,2.1,0c7.2,0,14.4,0,21.6,0c1.6,0,3.2,0.2,4.7,0.6c4.3,1,6,3.4,5.8,7.8c-0.2,5.9-3.1,8.9-9.2,9.1
		c-9.1,0.2-18.2,0.3-27.3,0.3c-2.4,0-4.8-0.2-7.1-0.7c-3.1-0.7-5.1-3.4-5.4-6.6c0-0.3,0-0.7,0-1c0-33.4,0-66.7,0-100.1
		c0-3,3-6.1,6.1-6.2c11.6,0,23.1,0,34.7,0c1.3,0,2.6,0.3,3.9,0.6c3.8,0.9,5.6,2.8,5.9,6.2c0.4,5.5-1,8.6-4.9,9.9
		c-2,0.7-4.2,1.1-6.4,1.2c-7.5,0.1-14.9,0.1-22.4,0.1C370.5,160.5,369.8,160.5,369,160.5z"/>
	<path class="st0" d="M617.6,198.9c0-16.8,0-33.7,0-50.5c0-4.6,3.7-8.2,8.3-8.1c8.5,0.1,17,0.2,25.6,0.4c2.9,0,5.4,1.3,7.4,3.3
		c4.5,4.5,7.1,10.1,9.3,16c1.3,3.6,2.3,7.3,2.2,11.3c-0.1,2.6,0.1,5.2,0,7.8c-0.6,10.3-4.8,19.2-11.5,26.9c-2.1,2.4-4.8,3.5-8.1,3.4
		c-4.5-0.1-9.1,0.2-13.7,0.3c-2.8,0.1-4.1,1.5-4.1,4.3c0,11.6,0,23.3,0.1,34.9c0,4.3-1.6,6-5.8,6c-1.8,0-3.6,0-5.3-0.4
		c-2.9-0.6-4.2-2.4-4.2-5.4C617.6,232.4,617.6,215.7,617.6,198.9z M651.1,174.9c0.1,0,0.2,0,0.3,0c0-3.1,0-6.2,0-9.3
		c-0.1-4.9-2.6-7.4-7.5-7.4c-1.2,0-2.4,0-3.6,0c-4.9,0-7.3,2-7.5,6.8c-0.2,6.5,0,13.1,0.1,19.6c0,3.1,1,6,4.2,7
		c2.3,0.7,4.8,0.6,7.2,0.6c3.8,0,6.3-2.1,6.7-5.9C651.3,182.4,651.1,178.6,651.1,174.9z"/>
	<path class="st0" d="M491.9,198.4c0-11.7,0.1-23.4,0-35.1c-0.1-9.6,11.1-21.4,20.2-20.9c3,0.2,6.1-0.2,9.1-0.3
		c4.6-0.3,8.4,1.4,11.1,4.9c3.4,4.5,6.5,9.3,9.6,14.1c1.6,2.5,1.1,5.3,0.7,8.2c-0.3,1.9-0.9,3.4-1.9,4.9c-2.7,3.8-7.8,4-10.3,0.1
		c-1.3-2-2.2-4.3-3-6.6c-1.5-4.3-4.7-6.8-8.8-8.1c-4.1-1.3-7.5,0.2-10.3,3.3c-2.2,2.5-3.3,5.3-3.2,8.8c0.3,5.7,0,11.5,0.2,17.2
		c0.2,6.8,0.6,13.6,0.8,20.4c0.2,5.8,0.2,11.6,0.3,17.4c0.1,6.2,5.6,10.9,11.6,9.9c3.2-0.5,5.9-2,8.1-4.2c0.6-0.6,0.9-1.4,1.2-2.2
		c0.6-1.5,1-3.2,1.7-4.6c1.7-3.5,4.1-5,7.3-4.6c3.3,0.4,5.4,2.3,6.1,6.1c0.5,2.4,0.6,5,0.5,7.5c0,1-0.9,2-1.5,2.9
		c-2.4,3.7-4.9,7.4-7.3,11.1c-4.3,6.7-10.6,8.3-18.1,7.4c-2-0.3-4-0.2-5.9-0.5c-6.6-0.9-10.7-5.3-14.5-10.2
		c-2.6-3.3-3.5-7.2-3.6-11.2C491.9,222.2,492,210.3,491.9,198.4C491.9,198.4,491.9,198.4,491.9,198.4z"/>
	<path class="st0" d="M278.8,239.1c-0.5,4.7-0.6,8.8-1.5,12.8c-1,4-4.5,5.9-8.4,5.3c-5.3-0.8-7.5-3-7.8-7.6c-0.1-1.5-0.1-3-0.1-4.6
		c0-1.5,0-3,0-4.7c-0.9-0.1-1.7-0.1-2.4-0.1c-6.5,0-13.1,0.1-19.6-0.1c-1.3,0-2.7-0.6-3.7-1.4c-4.2-3.6-5.8-8.6-4.7-13.7
		c1.2-5.9,3.1-11.7,5.2-17.4c7-18.7,14.2-37.3,21.6-55.8c1.1-2.7,3.4-5.1,5.6-7.2c2.1-2,4.9-2.2,7.6-0.9c1.3,0.6,2.6,1.3,3.8,2.1
		c2.5,1.6,3.1,3.5,2,6.1c-0.8,2-1.6,4-2.5,6.1c-1.8,4.3-3.7,8.6-5.6,12.9c-1.8,4.2-3.5,8.4-5.3,12.5c-1.8,4.1-3.8,8.1-5.7,12.2
		c-1.3,3-2.5,6-3.8,9c-0.1,0.3-0.2,0.6-0.4,0.9c-1.2,1.8-1.9,3.6-1.8,5.9c0.2,2.6,0,5.3-0.1,7.9c0,1.1,0.3,1.6,1.6,1.7
		c2.4,0.1,4.2-0.3,5.8-2.5c3.7-5.1,9.4-5.7,14.8-4.3c1.7,0.5,2.1,1.8,2.5,3.4c0.2,1,1,2.4,1.8,2.6c5.8,1.9,5.8,4.4,5.8,9.9
		C283.5,234.1,281.5,237.2,278.8,239.1z"/>
	<path class="st0" d="M418.9,280.9c0,1.5,0,3,0,4.5c0,2.7-1.6,4.3-4.1,4.4c-2.8,0-4.3-1.3-4.3-4.2c0-3.6,0-7.2,0.1-10.9
		c0-2,1.6-3.3,3.8-3.4c2.5-0.1,4.3,1.2,4.5,3.2C419,276.7,418.9,278.8,418.9,280.9C418.9,280.9,418.9,280.9,418.9,280.9z
		 M415.6,286.7c-0.7-2.8-1.3-5.4-1.9-8.1c-0.4,2.2-0.5,4.3-0.4,6.4C413.3,286.3,413.9,286.9,415.6,286.7z M414.4,273.7
		c-0.1,0.2-0.3,0.4-0.4,0.5c0.6,2.3,1.2,4.7,1.8,7c0.2,0,0.3,0,0.5-0.1c-0.1-2.1-0.1-4.2-0.4-6.3C415.9,274.5,415,274.1,414.4,273.7
		z"/>
	<path class="st0" d="M429.4,276.7c-0.4,1.4-0.7,2.5-0.9,3.5c-0.1,0.5,0.1,1,0.2,1.5c0.5,2.5,0.9,4.9-1.2,6.9
		c-1.1,1.1-2.2,2-3.8,1.4c-1.8-0.7-3.1-1.9-3.2-3.9c-0.1-1.7,0.4-3.4,0.4-5c0-1.9-0.4-3.9-0.4-5.8c0-1.9,1.3-3.2,3-3.8
		c1.7-0.6,3.5-0.4,4.5,1.4C428.7,274.2,429,275.6,429.4,276.7z M423.1,274.5c0,1.3-0.1,2.6,0.1,3.8c0.1,0.5,0.9,1,1.5,1.1
		c0.5,0.1,1.4-0.2,1.6-0.6C427.5,276.5,426.1,274.5,423.1,274.5z M423.1,285.2c-0.2,1.1,0.2,2.2,1.9,2c1.8-0.1,1.5-1.5,1.5-2.7
		c0-1.1,0.3-2.3-1.6-2.3C422.9,282.3,423.1,283.5,423.1,285.2z"/>
	<path class="st0" d="M381,274.4c-1.2,0-2.2,0.2-3-0.1c-0.7-0.2-1.7-0.9-1.8-1.6c-0.3-1.3,0.9-1.3,1.9-1.3c1.2,0,2.4,0,3.6,0
		c2.4,0,3,0.9,2.2,3.2c-1.5,4.5-3,9.1-4.6,13.6c-0.2,0.5-0.6,1-1,1.3c-0.4,0.3-1,0.3-1.6,0.4c-0.1-0.5-0.3-1.1-0.2-1.6
		c1.4-4.3,2.8-8.7,4.2-13C380.7,275.2,380.8,274.9,381,274.4z"/>
	<path class="st0" d="M374.7,290.2c-2.2,0-2.3-1.1-2.3-2.3c0-4.1,0-8.3,0-12.4c-0.2,0.1-0.4,0.2-0.6,0.3c-0.6-0.8-1.6-1.7-1.6-2.5
		c0.1-1.5,1.5-2,2.8-1.7c0.6,0.1,1.6,1,1.6,1.6C374.7,278.8,374.7,284.4,374.7,290.2z"/>
	<path class="st0" d="M339.9,159.3c-9.5,0-18.9,0-28.4,0c0-0.1,0-0.1,0-0.2c9.5,0,18.9,0,28.4,0
		C339.9,159.2,339.9,159.3,339.9,159.3z"/>
	<path class="st0" d="M399.7,281c-1,0.9-1.7,1.8-2.3,1.7c-0.6-0.1-1.5-1.1-1.5-1.7c0-0.6,0.9-1.6,1.5-1.7
		C398,279.2,398.7,280.2,399.7,281z"/>
	<path d="M134.7,175.6c0-3,0-6.1,0-9.1c0-3.3,2.3-5.7,6.6-6.3c1.9-0.2,3.8-0.2,5.7,0.1c4.2,0.7,6,2.4,6.1,6.6
		c0.2,5.8,0.1,11.6-0.3,17.4c-0.2,4.1-2.5,6-6.5,6.3c-1.6,0.1-3.3,0.1-4.9,0c-4.2-0.4-6.7-3.3-6.6-7.6
		C134.8,180.6,134.8,178.1,134.7,175.6C134.8,175.6,134.8,175.6,134.7,175.6z"/>
	<path d="M134.7,225.2c0-3,0-6.1,0-9.1c0-3.9,3.5-6.8,7.3-6c0.5,0.1,1.2-0.1,1.7-0.2c4.6-0.6,9.1,0.6,9.4,6.8
		c0.2,5.8,0.1,11.6-0.3,17.4c-0.2,3.9-2.4,5.8-6.2,6.1c-1.7,0.1-3.4,0.1-5.1,0c-4.3-0.3-6.8-3.3-6.7-7.7
		C134.8,230,134.8,227.6,134.7,225.2C134.8,225.2,134.7,225.2,134.7,225.2z"/>
	<path d="M651.1,174.9c0,3.8,0.2,7.5-0.1,11.3c-0.3,3.8-2.8,5.9-6.7,5.9c-2.4,0-5,0.1-7.2-0.6c-3.1-1-4.1-3.9-4.2-7
		c-0.1-6.5-0.2-13.1-0.1-19.6c0.1-4.8,2.6-6.7,7.5-6.8c1.2,0,2.4,0,3.6,0c4.9,0,7.4,2.5,7.5,7.4c0,3.1,0,6.2,0,9.3
		C651.3,174.9,651.2,174.9,651.1,174.9z"/>
	<path d="M415.6,286.7c-1.7,0.2-2.4-0.4-2.4-1.7c0-2.1,0-4.2,0.4-6.4C414.3,281.3,414.9,283.9,415.6,286.7z"/>
	<path d="M414.4,273.7c0.5,0.4,1.5,0.8,1.5,1.2c0.3,2.1,0.3,4.2,0.4,6.3c-0.2,0-0.3,0-0.5,0.1c-0.6-2.3-1.2-4.7-1.8-7
		C414.2,274.1,414.3,273.9,414.4,273.7z"/>
	<path d="M423.1,274.5c3,0,4.3,2,3.1,4.3c-0.2,0.4-1.1,0.7-1.6,0.6c-0.6-0.1-1.4-0.6-1.5-1.1C423,277,423.1,275.8,423.1,274.5z"/>
	<path d="M423.1,285.2c0-1.6-0.1-2.9,1.8-2.9c1.8,0,1.6,1.2,1.6,2.3c0,1.1,0.3,2.6-1.5,2.7C423.3,287.3,422.9,286.3,423.1,285.2z"/>
</g>
</svg>
