<svg id="Layer_1" data-name="Layer 1" xmlns="http://www.w3.org/2000/svg" viewBox="0 0 682.86 216.14"><defs><style>.cls-1{fill:#fff;}</style></defs><title>Basecamp</title><path class="cls-1" d="M362,26.19H693c5.57,0,9.1,2.41,10.18,7.06a12.87,12.87,0,0,1,.26,2.91q0,98.1,0,196.19c0,6.3-3.69,10-10,10H30.61c-6.4,0-10-3.68-10-10.2V36.62c0-6.92,3.51-10.43,10.45-10.43Zm.12,7.1H32.07c-4.37,0-4.37,0-4.37,4.45V231c0,4.17.07,4.24,4.14,4.24H692.23c4.08,0,4.15-.07,4.15-4.23V37.53c0-.38,0-.76,0-1.14,0-2.66-.41-3-3-3.1H362.16Z" transform="translate(-20.61 -26.19)"/><path class="cls-1" d="M50,56.62c13.51,0,26.72-.1,39.92.06,4.16,0,7,2.89,9.45,6a56.24,56.24,0,0,1,8.85,17,32.36,32.36,0,0,1,1.64,16.17c-.64,3.7-.59,7.47-3.19,10.52a4.83,4.83,0,0,1-1.24,1.3c-3.81,1.91-5.15,5.54-5.54,9.22-.38,3.51.2,7.16.71,10.7.15,1.08,1.34,2.16,2.28,3,5.48,4.64,7,10.81,6.86,17.59-.06,3.79.37,7.72-.48,11.34a44,44,0,0,1-4.76,11.34c-3.71,6.58-9.33,11.41-15.66,15.39a5,5,0,0,1-2.57.61q-14.84.08-29.67,0c-4.08,0-6.51-2.54-6.51-6.66L50,56.49C50,56.43,50.06,56.36,50,56.62ZM67.5,94.07h.08c0,2.87,0,5.73,0,8.59,0,4.76,2.78,8,7.52,8.53a29.51,29.51,0,0,0,6.09,0c4.37-.45,6.81-2.64,7.07-7.09.39-6.61.51-13.25.33-19.87-.14-4.86-2.16-6.86-7-7.66a23.28,23.28,0,0,0-6.51-.2c-5,.6-7.7,3.44-7.62,7.32C67.55,87.15,67.5,90.61,67.5,94.07Zm20.8,55.84h.36c0-2.79.16-5.59,0-8.36-.4-5.7-2.2-7.89-7.14-8.51a31.7,31.7,0,0,0-8.74.39c-3.13.5-5.27,3.6-5.25,6.76,0,6.24.1,12.49.05,18.74,0,5.12,2.82,8.45,7.92,8.82a37.1,37.1,0,0,0,5.87-.06c4.1-.36,6.59-2.62,6.91-6.73C88.53,157.3,88.3,153.6,88.3,149.91Z" transform="translate(-20.61 -26.19)"/><path class="cls-1" d="M573.7,110.22a44,44,0,0,0,7.13-18.62c1.28-8.09,2.59-16.19,4.21-24.22a28.72,28.72,0,0,1,3.25-8.14,10.46,10.46,0,0,1,4.05-3.75c2.73-1.5,4.87-1,6.8,1.49,2.66,3.39,4.8,6.9,4.58,11.63-.42,9.11-.46,18.25-.54,27.38-.08,10.64,0,21.28,0,31.91-.06,13.74-.19,27.48-.29,41.21,0,3.45.16,6.91-.12,10.33-.25,3-2.36,4.88-4.87,6.27-2.1,1.17-3.53-.3-5.09-1.3a6.67,6.67,0,0,1-3.22-6.23c0-12.53-.19-25.07-.41-37.6a16.1,16.1,0,0,0-1.07-5c-.55-1.55-1.75-1.87-2.49-.16a56.71,56.71,0,0,0-3.61,9.7c-1,4.2-1,8.6-1.85,12.81a20.22,20.22,0,0,1-3,6.67c-1.71,2.6-4.63,2.63-6-.11a29.47,29.47,0,0,1-2.86-9c-1-7-2.27-13.92-6.76-19.73-.45-.58-1.29-1.38-1.78-1.27a2.59,2.59,0,0,0-1.56,1.69,18,18,0,0,0-.21,3.76c-.17,8-.36,16-.47,24-.07,5.13,0,10.26,0,15.39,0,2.43-4.32,6.74-6.89,6.91-2.12.15-5.67-2.86-5.85-5.48-.39-5.55-.57-11.11-.62-16.67-.26-32.7-.52-65.39-.6-98.08,0-4.43,2.72-7.93,6.13-10.61,1.76-1.38,4.81-.6,7,1.41a16.64,16.64,0,0,1,4.76,9.06c1.51,6.65,2.67,13.37,4.16,20,1.32,5.94,2.72,11.88,4.43,17.73C570.66,105.8,572.28,107.73,573.7,110.22Z" transform="translate(-20.61 -26.19)"/><path class="cls-1" d="M246.38,89.47V65.68c0-5.75,3.74-9.53,9.48-9.52,12.16,0,24.31,0,36.47.11a41.8,41.8,0,0,1,8.93,1c3.56.83,6.63,6.91,5.54,10.37a18.75,18.75,0,0,1-1.1,2.71c-1.47,2.93-3.3,4.76-7.15,4.63-9.35-.33-18.72-.11-28.08-.11-.68,0-1.36,0-2,0-3.58.29-5.51,2.17-5.59,5.67a30.64,30.64,0,0,0,2.08,12.51,2.47,2.47,0,0,0,2.69,1.82c3,0,6,.14,9.05,0a18.4,18.4,0,0,1,10.88,3.24c7.44,4.76,12.64,11.65,17,19.11,1.3,2.24,1.33,5.37,1.43,8.11.28,8.05.48,16.12.37,24.18A70.87,70.87,0,0,1,305,163.61a29.09,29.09,0,0,1-7.26,13.44,42.1,42.1,0,0,1-15.67,10.89,13.47,13.47,0,0,1-9.29.58c-11.35-3.74-20.61-10-25-21.7a25.06,25.06,0,0,1-1.67-7.4,6.62,6.62,0,0,1,1.81-4.36c2.69-2.84,6.37-3.73,10.14-3.55a6,6,0,0,1,3.88,2.2c2.63,3.39,4.93,7,7.37,10.58a13.2,13.2,0,0,0,1.77,2.34c3.29,3.05,7.69,4.9,11.32-.77,2.6-4.06,4.47-8.18,4.29-13.28-.38-10.07-.32-20.17-2.17-30.12-.64-3.4-1.44-6.78-4.27-9.21-2.26-1.93-4.74-2.38-7.31-.9a48.3,48.3,0,0,0-5.79,3.93c-2.44,1.93-4.94,3.34-8.22,3.06-2.33-.2-4.68,0-7,0a5.28,5.28,0,0,1-5.48-5.58q0-12.12,0-24.24Z" transform="translate(-20.61 -26.19)"/><path class="cls-1" d="M335.21,166.72c9,0,17.92-.05,26.82,0a27.44,27.44,0,0,1,6.25.79c3.79,1,5.79,3.56,6.15,7.46.75,8.17-4.11,11.51-10.56,11.73-10.4.36-20.82.38-31.23.4a37,37,0,0,1-8.06-.82,8,8,0,0,1-6.15-7.7c0-.68,0-1.36,0-2V64a7.52,7.52,0,0,1,7.79-7.77q18.8,0,37.6,0a25.55,25.55,0,0,1,4.28.33c6.83,1.18,8.42,4.11,8.11,11.17-.18,4.11-2.62,6.86-6.62,7.92a26.62,26.62,0,0,1-6.45,1c-8.45.11-16.91,0-25.37,0h-2.87v33.82c.72,0,1.53,0,2.33,0,8.3-.27,16.6-.47,24.9-.87a15.85,15.85,0,0,1,10.46,3.6,9.44,9.44,0,0,1,3.56,7.74c.08,7.47-2.92,10.9-10.54,11.34s-15.17.11-22.76.12h-7.63Z" transform="translate(-20.61 -26.19)"/><path class="cls-1" d="M619.24,120.5V63a9.26,9.26,0,0,1,9.53-9.42c9.66.16,19.33.27,29,.41a12.14,12.14,0,0,1,8.66,3.86c4.72,4.78,7.58,10.68,10,16.81,1.78,4.53,3.15,9.17,3,14.14-.1,3,.15,5.94,0,8.9-.67,11.82-5.49,22-13.07,30.83a11.39,11.39,0,0,1-9.43,4c-5.19-.13-10.4.19-15.6.36-3,.1-4.62,1.73-4.62,4.79,0,13.29.09,26.58,0,39.87,0,2.21-.07,4.72-2.35,6.19a3.2,3.2,0,0,1-1.62.71,58.11,58.11,0,0,1-8.77-.42c-3.17-.54-4.67-2.78-4.67-6ZM657.5,92.93h.34c0-3.55.06-7.1,0-10.64-.11-5.49-3-8.32-8.48-8.34-1.43,0-2.87,0-4.3,0-5.47,0-8.3,2.52-8.39,7.89-.11,7.25,0,14.49.08,21.74,0,3.64,1,7.19,4.76,8.43,2.56.84,5.49.73,8.25.73,4.38,0,7.31-2.39,7.67-6.71S657.5,97.3,657.5,92.93Z" transform="translate(-20.61 -26.19)"/><path class="cls-1" d="M475.67,120c0-13.44-.07-26.88,0-40.32,0-4,.91-7.88,3.49-11a76.33,76.33,0,0,1,8-8.54,16.83,16.83,0,0,1,11-4c3.62-.12,7.24-.23,10.86-.45a14.44,14.44,0,0,1,13,6c3.75,5,7.17,10.26,10.53,15.54,1.88,2.94,1.36,6.21.85,9.57a12.68,12.68,0,0,1-2.37,5.79c-3,4.08-8.66,4.3-11.54.17a29.5,29.5,0,0,1-3.51-7.49c-1.82-5.41-5.73-8.31-11-9.6-4.65-1.15-8.2.86-11.11,4.37a13.25,13.25,0,0,0-3.33,9.6c.32,6.24,0,12.52.15,18.78.21,8.14.7,16.26.94,24.4.19,6.63.23,13.27.28,19.9a11.59,11.59,0,0,0,13.45,11.12,17,17,0,0,0,9.07-4.78,7.34,7.34,0,0,0,1.36-2.51c.78-2,1.31-4,2.23-5.91,1.5-3.06,3.89-5,7.54-4.74s5.89,2.13,7.14,5.61a22.33,22.33,0,0,1,1,10.07c-.12,1.08-1,2.1-1.69,3.08-2.77,4.24-5.63,8.41-8.35,12.67-4.91,7.68-12.13,9.57-20.63,8.46-2.24-.28-4.52-.23-6.75-.53-7.49-1-12.2-6.08-16.6-11.61-3-3.77-4.06-8.21-4.1-12.82-.13-13.59-.05-27.18-.05-40.77Z" transform="translate(-20.61 -26.19)"/><path class="cls-1" d="M212,167.89c-1.33-.06-2.22-.14-3.11-.14-7.48,0-15,.06-22.42-.07a6.65,6.65,0,0,1-3.85-1.41A15.81,15.81,0,0,1,177,150.46a123.49,123.49,0,0,1,5.83-19.66q12.13-32.19,24.84-64.16c1.22-3.06,3.83-5.73,6.27-8.1s5.67-2.62,8.84-1a47.09,47.09,0,0,1,4.36,2.38c2.81,1.78,3.45,3.93,2.21,6.93-.93,2.23-1.84,4.47-2.8,6.69C223.28,81,220,88.46,216.78,96c-2.17,5-4.21,10.15-6.44,15.16-2.06,4.66-4.32,9.23-6.47,13.85a29.67,29.67,0,0,0-2.19,5.11,34.7,34.7,0,0,0-.81,6.37c-.14,2.4,0,4.82-.1,7.23,0,1.29.36,1.86,1.79,1.93,2.74.13,4.77-.28,6.64-2.86,4.2-5.78,10.76-6.5,16.91-4.92,2.11.54,2.53,2.2,2.89,4.12a4.05,4.05,0,0,0,2,2.8c6.64,2.16,6.71,4.95,6.64,10.87-.06,5.22-1.84,8-5.76,11.09-.28,4.47-.08,8.79-.91,12.91-1.59,7.89-10.86,10.53-16.61,4.81a9,9,0,0,1-2.25-5.16C211.74,175.6,212,171.89,212,167.89Z" transform="translate(-20.61 -26.19)"/><path class="cls-1" d="M347.79,213.55c0-2,0-4.07,0-6.1,0-2.38,1.83-4,4.45-4.09,2.9-.1,4.94,1.23,5,3.67.15,4.59.13,9.19,0,13.79-.05,2.17-2,3.57-4.63,3.6-2.87,0-4.7-1.31-4.88-3.87-.16-2.32,0-4.66,0-7Zm4.81,7.75.92-.54-2.19-9.33a28.29,28.29,0,0,0-.41,7.7C351,219.9,352,220.58,352.6,221.3Zm1.14-6.68.69,0c-.21-2.54-.35-5.09-.69-7.6-.05-.34-1.14-.54-2.13-1C352.4,209.23,353.07,211.92,353.74,214.62Z" transform="translate(-20.61 -26.19)"/><path class="cls-1" d="M394.47,219.35c-1.4,1.67-.67,5.12-4.67,4.44a13.28,13.28,0,0,1,.9-3.17c3-5.08,1.38-9.94-.48-14.82-.32-.83-.52-1.7-.78-2.58,1.93-.95,2.82,0,3.4,1.52.51,1.29.94,2.63,1.62,4.56a31.51,31.51,0,0,1,1.86-4.84c.43-.73,1.53-1.06,2.33-1.56a18.78,18.78,0,0,1,.39,2.46,2.89,2.89,0,0,1-.44,1.46c-2.89,5-2.5,10.07-.19,15.17.22.48-.16,1.23-.26,1.86-.71-.26-1.72-.32-2.06-.83A22.08,22.08,0,0,1,394.47,219.35Z" transform="translate(-20.61 -26.19)"/><path class="cls-1" d="M340.59,221.6a18.66,18.66,0,0,1,3.69.06,7,7,0,0,1,2,1.37c-.64.66-1.21,1.81-1.92,1.9a28.17,28.17,0,0,1-6.09.07c-1.72-.15-2.32-1.66-1.39-3.44,1.33-2.53,2.88-4.95,4.22-7.47a18.8,18.8,0,0,0,1.89-4.56,3,3,0,0,0-1-2.58c-1-.58-2.1-.31-2.51,1.27-.14.52-1.38.75-2.12,1.11-.19-1.1-.82-2.35-.49-3.26.69-2,4-3.14,6-2.49a4.51,4.51,0,0,1,3,5.34,78.41,78.41,0,0,1-3.35,8.65C342.07,218.8,341.41,220,340.59,221.6Z" transform="translate(-20.61 -26.19)"/><path class="cls-1" d="M382.28,221.62a18.19,18.19,0,0,1,3.63.06A7.49,7.49,0,0,1,388,223c-.7.68-1.31,1.82-2.1,2a25,25,0,0,1-5.19.11c-2.33-.08-3.16-1.39-2.08-3.46,1.68-3.21,3.57-6.3,5.24-9.51a8.32,8.32,0,0,0,.95-3.44,2.25,2.25,0,0,0-1.29-1.75c-.65-.12-1.48.52-2.18.91s-1.55,1-2.32,1.46c-.11-1.16-.69-2.58-.23-3.43a5,5,0,0,1,6.32-2,5.26,5.26,0,0,1,2.29,6.77c-1,2.63-2.31,5.16-3.5,7.73C383.47,219.26,383,220.18,382.28,221.62Z" transform="translate(-20.61 -26.19)"/><ellipse class="cls-1" cx="265.06" cy="49.03" rx="22.95" ry="0.1"/><path class="cls-1" d="M365.08,214.33c1.23-.94,2.05-2,2.65-1.91a2.65,2.65,0,0,1,1.65,2,2.6,2.6,0,0,1-1.73,1.91C367,216.42,366.27,215.32,365.08,214.33Z" transform="translate(-20.61 -26.19)"/></svg>